<svg width="24" height="24" viewBox="0 0 24 24" fill="none" xmlns="http://www.w3.org/2000/svg" class=""><g clip-path="url(#naver-blog_svg__clip0)"><path fill-rule="evenodd" clip-rule="evenodd" d="M20.21 1.7H3.79C1.694 1.7 0 3.45 0 5.607v9.265c0 2.153 1.693 3.903 3.79 3.903h5.657l1.93 3.224s.02.041.06.095c.112.197.32.333.561.333a.651.651 0 00.558-.33.403.403 0 00.064-.098l1.93-3.224h5.655c2.094 0 3.795-1.75 3.795-3.903V5.607C24 3.45 22.303 1.7 20.21 1.7zM5.33 13.134c-.886 0-1.235-.65-1.235-.65v.49H2.61V6.69H4.08v2.393c.593-.597 1.251-.597 1.251-.597 1.994 0 2.07 2.293 2.07 2.293 0 2.273-2.07 2.355-2.07 2.355zm4.63-4.224v4.063H8.543V9.255c0-1.284-.67-1.251-.67-1.251V6.546c2.146 0 2.086 2.364 2.086 2.364zm5.944 1.927c0 2.293-2.483 2.297-2.483 2.297-2.507 0-2.427-2.297-2.427-2.297 0-2.327 2.427-2.327 2.427-2.327 2.567 0 2.483 2.327 2.483 2.327zm5.484 2.079c0 2.38-2.146 2.355-2.146 2.355h-.574v-1.334h.357c1.039 0 .935-1.103.935-1.103v-.35c-.458.609-1.292.576-1.292.576-2.042 0-2.022-2.24-2.022-2.24 0-2.4 2.078-2.31 2.078-2.31.81 0 1.236.577 1.236.577v-.429h1.428v4.258zm-8.91-2.084c0-.535.422-.967.943-.967.522 0 .943.432.943.967a.954.954 0 01-.943.968.954.954 0 01-.943-.968zm5.66 0c0-.535.421-.967.943-.967.521 0 .942.432.942.967a.954.954 0 01-.942.968.957.957 0 01-.943-.968zm-14.075 0c0-.535.421-.967.943-.967.521 0 .942.432.942.967a.954.954 0 01-.942.968.954.954 0 01-.943-.968z" fill="#C5C5C5"></path></g><defs><clipPath id="naver-blog_svg__clip0"><path fill="#fff" d="M0 0h24v24H0z"></path></clipPath></defs></svg>