<svg width="24" height="24" viewBox="0 0 24 24" fill="none" xmlns="http://www.w3.org/2000/svg" class=""><path d="M12 5.84c1.071 0 2.09.32 3.053.856a5.682 5.682 0 012.25 2.25c.536.965.858 1.983.858 3.054 0 1.125-.322 2.143-.857 3.107a5.681 5.681 0 01-2.25 2.25 6.195 6.195 0 01-3.054.804 6.247 6.247 0 01-3.107-.804 5.682 5.682 0 01-2.25-2.25A6.247 6.247 0 015.839 12c0-1.071.268-2.09.804-3.054a5.682 5.682 0 012.25-2.25c.964-.535 1.982-.857 3.107-.857zm0 10.178a3.886 3.886 0 002.84-1.179A3.922 3.922 0 0016.017 12c0-1.071-.429-2.036-1.179-2.84-.803-.75-1.768-1.178-2.839-1.178-1.125 0-2.09.429-2.84 1.179A3.886 3.886 0 007.983 12c0 1.125.375 2.09 1.179 2.84.75.803 1.714 1.178 2.839 1.178zM19.875 5.57c0-.375-.16-.696-.429-1.017-.321-.268-.642-.429-1.017-.429-.429 0-.75.16-1.018.429-.322.321-.429.642-.429 1.017 0 .429.107.75.429 1.018.267.322.589.429 1.018.429.375 0 .696-.107.964-.429.268-.268.428-.589.482-1.018zm4.071 1.447c0 1.018.054 2.678.054 4.982 0 2.357-.053 4.018-.107 5.036a11.678 11.678 0 01-.429 2.625 6.35 6.35 0 01-1.5 2.357c-.642.643-1.446 1.125-2.303 1.446-.75.268-1.661.429-2.679.482C15.964 24 14.304 24 12 24c-2.357 0-4.018 0-5.036-.054-1.018-.053-1.875-.214-2.625-.535a5.527 5.527 0 01-2.357-1.393C1.34 21.375.857 20.57.536 19.66c-.268-.75-.429-1.608-.482-2.625C0 16.018 0 14.357 0 12c0-2.304 0-3.964.054-4.982C.107 6 .268 5.089.536 4.339c.321-.857.803-1.66 1.446-2.303A6.347 6.347 0 014.34.536C5.09.32 5.946.16 6.964.107A98.995 98.995 0 0112 0c2.304 0 3.964.054 4.982.107 1.018.054 1.929.214 2.679.429.857.321 1.66.857 2.303 1.5a6.596 6.596 0 011.5 2.303c.215.75.375 1.661.482 2.679zM21.375 19.07c.214-.589.321-1.553.429-2.892 0-.75.053-1.875.053-3.322v-1.714c0-1.447-.053-2.572-.053-3.322-.108-1.339-.215-2.303-.429-2.892a4.062 4.062 0 00-2.304-2.304c-.589-.214-1.553-.321-2.892-.429-.804 0-1.929-.053-3.322-.053h-1.714c-1.447 0-2.572.053-3.322.053-1.339.108-2.303.215-2.892.429-1.125.429-1.875 1.232-2.304 2.304-.214.589-.375 1.553-.429 2.892-.053.804-.053 1.929-.053 3.322v1.714c0 1.447 0 2.572.053 3.322.054 1.339.215 2.303.429 2.892.429 1.125 1.232 1.875 2.304 2.304.589.214 1.553.375 2.892.429.75.053 1.875.053 3.322.053h1.714c1.447 0 2.572 0 3.322-.053 1.339-.054 2.303-.215 2.892-.429a4.062 4.062 0 002.304-2.304z" fill="#C5C5C5"></path></svg>