<svg width="24" height="24" viewBox="0 0 24 24" fill="none" xmlns="http://www.w3.org/2000/svg" class="icon"><path fill-rule="evenodd" clip-rule="evenodd" d="M12 3.5a4.75 4.75 0 00-4.75 4.75v1.512c.444-.139.942-.246 1.5-.326V8.25a3.25 3.25 0 016.5 0v1.186c.558.08 1.056.187 1.5.326V8.25A4.75 4.75 0 0012 3.5z" fill="#3E69FF" fill-opacity=".4"></path><path fill-rule="evenodd" clip-rule="evenodd" d="M12 21c6.286 0 8-1.286 8-6s-1.714-6-8-6-8 1.286-8 6 1.714 6 8 6zm0-8a1 1 0 00-1 1v2a1 1 0 102 0v-2a1 1 0 00-1-1z" fill="#3E69FF"></path></svg>