<svg width="166" height="24" viewBox="0 0 166 24" fill="none" xmlns="http://www.w3.org/2000/svg" class="header-brand__logo"><path d="M0 19.42l8.582-9.538H.277V6.049h14.16v3.335l-8.612 9.539h8.618v3.833H0V19.42zM16.145 14.491v-.065c0-4.77 3.375-8.697 8.211-8.697 5.549 0 8.088 4.33 8.088 9.07 0 .373-.03.812-.065 1.244H20.828c.465 2.151 1.95 3.27 4.058 3.27 1.579 0 2.728-.497 4.03-1.711L31.612 20c-1.549 1.931-3.781 3.116-6.785 3.116-4.995.012-8.683-3.513-8.683-8.626zm11.716-1.398c-.277-2.12-1.52-3.555-3.499-3.555-1.955 0-3.222 1.405-3.593 3.555h7.092zM35.36 6.049h4.712v3.365c.96-2.305 2.509-3.804 5.3-3.68v4.96h-.246c-3.128 0-5.054 1.901-5.054 5.889v6.173h-4.713V6.049zM46.457 14.491v-.065c0-4.799 3.84-8.697 9.018-8.697 5.142 0 8.959 3.833 8.959 8.632v.06c0 4.798-3.84 8.696-9.018 8.696-5.148.012-8.96-3.821-8.96-8.626zm13.324 0v-.065c0-2.465-1.768-4.615-4.371-4.615-2.698 0-4.306 2.091-4.306 4.55v.06c0 2.464 1.767 4.614 4.37 4.614 2.698.012 4.307-2.08 4.307-4.544zM67.35 10.818h9.453v4.55H67.35v-4.55zM84.82 20.57v2.18h-4.712V0h4.712v8.448c1.149-1.558 2.727-2.713 5.178-2.713 3.876 0 7.563 3.057 7.563 8.632v.06c0 5.58-3.629 8.631-7.563 8.631-2.51.006-4.059-1.143-5.178-2.488zm8.029-6.138v-.06c0-2.772-1.862-4.614-4.059-4.614-2.203 0-4.029 1.836-4.029 4.615v.059c0 2.773 1.826 4.615 4.03 4.615 2.196 0 4.058-1.813 4.058-4.615zM99.104 17.951v-.06c0-3.649 2.757-5.331 6.697-5.331 1.673 0 2.881.278 4.059.687v-.278c0-1.961-1.208-3.057-3.564-3.057-1.796 0-3.069.343-4.588.906l-1.179-3.614c1.826-.811 3.629-1.339 6.444-1.339 2.574 0 4.43.687 5.608 1.872 1.237 1.244 1.797 3.087 1.797 5.332v9.693h-4.554v-1.807c-1.148 1.28-2.727 2.12-5.018 2.12-3.128-.011-5.702-1.818-5.702-5.124zm10.815-1.09v-.841c-.807-.373-1.862-.622-3.004-.622-2.015 0-3.252.811-3.252 2.304v.065c0 1.28 1.054 2.027 2.574 2.027 2.197 0 3.682-1.215 3.682-2.933zM116.333 20.54l2.015-3.116c1.796 1.31 3.687 1.996 5.236 1.996 1.367 0 1.985-.497 1.985-1.244v-.059c0-1.03-1.614-1.375-3.44-1.931-2.326-.688-4.959-1.778-4.959-5.018v-.06c0-3.4 2.727-5.296 6.072-5.296 2.109 0 4.4.717 6.197 1.931l-1.797 3.27c-1.643-.965-3.286-1.558-4.494-1.558-1.148 0-1.737.498-1.737 1.156v.059c0 .936 1.578 1.374 3.381 1.996 2.326.782 5.018 1.902 5.018 4.96v.058c0 3.71-2.757 5.392-6.356 5.392-2.32-.012-4.918-.788-7.121-2.536zM131.595 14.491v-.065c0-4.77 3.375-8.697 8.211-8.697 5.549 0 8.087 4.33 8.087 9.07 0 .373-.029.812-.065 1.244h-11.556c.465 2.151 1.949 3.27 4.058 3.27 1.579 0 2.727-.497 4.029-1.711L147.057 20c-1.549 1.931-3.782 3.116-6.786 3.116-4.989.012-8.676-3.513-8.676-8.626zm11.71-1.398c-.277-2.12-1.52-3.555-3.505-3.555-1.95 0-3.222 1.405-3.593 3.555h7.098z" fill="#000"></path><path d="M161.164 1.001H166L157.777 24h-4.836l8.223-22.999z" fill="#3E69FF"></path></svg>