<svg width="24" height="24" viewBox="0 0 24 24" fill="none" xmlns="http://www.w3.org/2000/svg" class="icon"><circle cx="8.75" cy="8" r="4" fill="#3E69FF" fill-opacity=".4"></circle><path d="M15.25 17c0 2.5-3.839 3.5-6.5 3.5s-6.5-1-6.5-3.5c0-3.1 3.839-3.5 6.5-3.5s6.5.4 6.5 3.5z" fill="#3E69FF"></path><path fill-rule="evenodd" clip-rule="evenodd" d="M19 8.5a.75.75 0 00-1.5 0v1.75h-1.75a.75.75 0 000 1.5h1.75v1.75a.75.75 0 001.5 0v-1.75h1.75a.75.75 0 000-1.5H19V8.5z" fill="#3E69FF" fill-opacity=".4"></path><svg width="24" height="24" viewBox="0 0 24 24" fill="none" xmlns="http://www.w3.org/2000/svg" class="icon"><path fill-rule="evenodd" clip-rule="evenodd" d="M12 3.5a4.75 4.75 0 00-4.75 4.75v1.512c.444-.139.942-.246 1.5-.326V8.25a3.25 3.25 0 016.5 0v1.186c.558.08 1.056.187 1.5.326V8.25A4.75 4.75 0 0012 3.5z" fill="#3E69FF" fill-opacity=".4"></path><path fill-rule="evenodd" clip-rule="evenodd" d="M12 21c6.286 0 8-1.286 8-6s-1.714-6-8-6-8 1.286-8 6 1.714 6 8 6zm0-8a1 1 0 00-1 1v2a1 1 0 102 0v-2a1 1 0 00-1-1z" fill="#3E69FF"></path></svg></svg>