<svg width="24" height="17" viewBox="0 0 24 17" fill="none" xmlns="http://www.w3.org/2000/svg" class=""><path d="M23.517 2.637c.175.792.351 2.022.44 3.605L24 8.44l-.044 2.197c-.088 1.67-.264 2.857-.44 3.649-.175.527-.44.967-.79 1.318-.396.396-.836.66-1.363.792-.791.22-2.55.351-5.363.44l-4 .043-4-.044c-2.813-.088-4.615-.22-5.363-.44-.527-.131-1.01-.395-1.362-.79a2.549 2.549 0 01-.791-1.32c-.22-.79-.352-1.977-.44-3.648L0 8.44c0-.616 0-1.363.044-2.198.088-1.583.22-2.813.44-3.605.131-.527.395-.967.79-1.362.352-.352.836-.616 1.363-.791C3.385.308 5.187.132 8 .044L12 0l4 .044c2.813.088 4.572.264 5.363.44.527.175.967.44 1.362.79.352.396.616.836.792 1.363zM9.538 12.044l6.286-3.604-6.286-3.56v7.164z" fill="#C5C5C5"></path></svg>